# xmcd
#
# Track frame offsets:
#	150
#	19038
#	36630
#	69644
#	89334
#	122680
#	147765
#	181890
#
# Disc length: 2805 seconds
#
# Revision: 1
# Processed by: cddbd v1.5.1PL2 Copyright (c) Steve Scherf et al.
# Submitted via: EasyCDDAExtractor 9.0.0.1
#
DISCID=6c0af308
DTITLE=Dio - Roseland Balllroom New York City 09-12-00 Disc 2
DYEAR=2000
DGENRE=Hard Rock
TTITLE0=Challis
TTITLE1=Losing My Insanity
TTITLE2=Otherworld
TTITLE3=Holy Diver
TTITLE4=Heaven and Hell
TTITLE5=Rainbow In The Dark
TTITLE6=Man On The Silver Mountain - Long Live Rock and Roll
TTITLE7=We Rock
EXTD=
EXTT0=
EXTT1=
EXTT2=
EXTT3=
EXTT4=
EXTT5=
EXTT6=
EXTT7=
PLAYORDER=
